<?xml version="1.0" encoding="UTF-8" standalone="no"?>
<svg
   version="1.1"
   viewBox="-1046.376 -3714.5603 59.999999 40"
   id="svg13"
   sodipodi:docname="logo2.svg"
   width="60"
   height="40"
   inkscape:version="1.3.2 (091e20e, 2023-11-25, custom)"
   xmlns:inkscape="http://www.inkscape.org/namespaces/inkscape"
   xmlns:sodipodi="http://sodipodi.sourceforge.net/DTD/sodipodi-0.dtd"
   xmlns="http://www.w3.org/2000/svg"
   xmlns:svg="http://www.w3.org/2000/svg">
  <sodipodi:namedview
     id="namedview13"
     pagecolor="#ffffff"
     bordercolor="#000000"
     borderopacity="0.25"
     inkscape:showpageshadow="2"
     inkscape:pageopacity="0.0"
     inkscape:pagecheckerboard="0"
     inkscape:deskcolor="#d1d1d1"
     showguides="false"
     inkscape:zoom="8.3157945"
     inkscape:cx="40.344912"
     inkscape:cy="17.376572"
     inkscape:window-width="1920"
     inkscape:window-height="1001"
     inkscape:window-x="-9"
     inkscape:window-y="-9"
     inkscape:window-maximized="1"
     inkscape:current-layer="g13">
    <sodipodi:guide
       position="-2662.8843,370.3001"
       orientation="1,0"
       id="guide13"
       inkscape:locked="false" />
  </sodipodi:namedview>
  <desc
     id="desc1">Created with Snap</desc>
  <defs
     id="defs1" />
  <g
     id="g13">
    <g
       transform="matrix(0.627785,0,0,0.57977622,-1048.2019,-3723.4799)"
       id="g10">
      <g
         id="g9">
        <path
           d="m 32.552,29.54 c 4.826,1.779 9.268,4.972 12.643,7.863 0.783,-0.812 1.853,-1.881 3.15,-3.088 -3.697,-3.206 -8.704,-6.829 -14.281,-8.883 -8.546,-3.147 -15.547,-3.356 -20.141,-2.901 -1.2,1.582 -2.293,3.248 -3.282,4.983 2.858,-0.7 10.972,-2.005 21.911,2.026 z"
           fill="#292929"
           id="path1" />
        <path
           d="m 73.656,54.71 c -2.184,-0.804 -4.346,-1.975 -6.393,-3.293 -1.307,0.902 -2.555,1.854 -3.701,2.797 2.662,1.831 5.58,3.499 8.578,4.604 6.057,2.23 11.701,2.868 16.168,2.868 2.346,0 4.361,-0.176 5.947,-0.389 0.383,-1.498 0.688,-3.027 0.918,-4.582 -3.495,0.614 -12.009,1.501 -21.517,-2.005 z"
           fill="#292929"
           id="path2" />
        <path
           d="M 34.065,74.565 C 45.399,70.389 54.404,59.727 54.745,59.319 54.836,59.214 64.088,48.81 73.656,45.284 83.166,41.78 91.681,42.667 95.174,43.28 94.944,41.727 94.639,40.199 94.256,38.701 89.656,38.087 81.387,37.77 72.141,41.177 61.547,45.079 51.869,55.96 51.426,56.464 51.34,56.568 42.772,66.691 32.552,70.456 21.611,74.489 13.49,73.179 10.64,72.481 c 0.989,1.734 2.082,3.4 3.282,4.982 1.114,0.111 2.357,0.188 3.742,0.188 4.329,0 9.923,-0.701 16.401,-3.086 z"
           fill="#292929"
           id="path3" />
        <path
           d="M 31.123,66.579 C 42.456,62.406 51.463,51.744 51.803,51.335 51.895,51.231 61.145,40.823 70.713,37.302 81.406,33.361 90.852,34.971 93.299,35.503 92.75,33.869 92.113,32.274 91.389,30.727 86.807,30.105 78.496,29.768 69.2,33.194 58.605,37.095 48.928,47.977 48.483,48.48 48.397,48.585 39.858,58.695 29.609,62.472 17.58,66.905 8.954,64.884 7.002,64.315 c 0.557,1.68 1.206,3.316 1.947,4.904 1.532,0.246 3.465,0.447 5.773,0.447 4.329,0.001 9.924,-0.698 16.401,-3.087 z"
           fill="#292929"
           id="path4" />
        <path
           d="M 28.181,58.597 C 39.514,54.419 48.521,43.757 48.861,43.349 48.953,43.245 58.202,32.841 67.769,29.315 77.615,25.689 86.398,26.768 89.64,27.376 88.669,25.686 87.597,24.062 86.425,22.517 81.63,22.099 74.31,22.242 66.257,25.208 55.661,29.113 45.984,39.995 45.54,40.499 45.454,40.601 36.887,50.723 26.666,54.49 16.216,58.341 8.343,57.319 5.173,56.612 c 0.229,1.574 0.535,3.124 0.921,4.642 1.517,0.24 3.424,0.432 5.685,0.432 4.329,-0.002 9.923,-0.703 16.402,-3.089 z"
           fill="#292929"
           id="path5" />
        <path
           d="m 29.609,37.524 c 3.639,1.34 7.055,3.486 9.967,5.703 1.357,-1.26 2.425,-2.357 3.143,-3.13 C 39.424,37.543 35.445,35.008 31.123,33.415 21.182,29.753 13.351,30.066 8.949,30.779 8.208,32.365 7.56,34.002 7.003,35.682 8.974,35.107 17.596,33.095 29.609,37.524 Z"
           fill="#292929"
           id="path6" />
        <path
           d="m 70.713,62.694 c -3.559,-1.309 -7.076,-3.578 -10.094,-5.91 -1.354,1.25 -2.449,2.348 -3.16,3.091 3.412,2.685 7.496,5.366 11.74,6.931 6.055,2.23 11.701,2.865 16.166,2.865 2.383,0 4.428,-0.182 6.023,-0.396 0.725,-1.549 1.361,-3.145 1.91,-4.781 -2.446,0.53 -11.894,2.144 -22.585,-1.8 z"
           fill="#292929"
           id="path7" />
        <path
           d="m 26.667,45.511 c 2.159,0.795 4.232,1.877 6.178,3.088 1.344,-0.9 2.604,-1.852 3.761,-2.797 -2.567,-1.714 -5.41,-3.291 -8.425,-4.402 -9.873,-3.637 -17.667,-3.351 -22.086,-2.648 -0.386,1.516 -0.692,3.062 -0.921,4.635 3.175,-0.711 11.043,-1.73 21.493,2.124 z"
           fill="#292929"
           id="path8" />
        <path
           d="m 67.77,70.681 c -4.676,-1.721 -9.278,-5.098 -12.773,-8.104 -0.774,0.83 -1.831,1.906 -3.116,3.109 3.818,3.311 8.974,7.113 14.378,9.105 6.053,2.227 11.695,2.865 16.162,2.865 1.482,-0.002 2.814,-0.076 4.01,-0.18 1.17,-1.543 2.24,-3.164 3.209,-4.852 -3.236,0.617 -11.976,1.703 -21.87,-1.943 z"
           fill="#292929"
           id="path9" />
      </g>
      <desc
         id="desc9">Created with Snap</desc>
      <defs
         id="defs9" />
    </g>
  </g>
</svg>
